# xmcd CD database file
#
# Track frame offsets:
#	150
#	17024
#	37496
#	56011
#	75198
#	88908
#	111917
#	134121
#	152429
#	172197
#	194393
#	215027
#	229528
#
# Disc length: 3263 seconds
#
# Revision: 0
# Processed by: cddbd v1.5.2PL0 Copyright (c) Steve Scherf et al.
# Submitted via: CDex 1.70beta2
#
DISCID=b70cbd0d
DTITLE=Terez Montcalm - Connection
DYEAR=2009
DGENRE=Jazz
TTITLE0=Le requin danse
TTITLE1=where the streets have no name
TTITLE2=C'est magnifique
TTITLE3=Connection
TTITLE4=My baby just cares for me
TTITLE5=Je n'attendais que toi
TTITLE6=Private lies
TTITLE7=Si je t'ai deçu
TTITLE8=Risque
TTITLE9=i'll be seeing you
TTITLE10=C'est extra
TTITLE11=Nothing left to say
TTITLE12=Comme je suis
EXTD=YEAR: 2009
EXTT0=
EXTT1=
EXTT2=
EXTT3=
EXTT4=
EXTT5=
EXTT6=
EXTT7=
EXTT8=
EXTT9=
EXTT10=
EXTT11=
EXTT12=
PLAYORDER=
